<svg xmlns="http://www.w3.org/2000/svg" viewBox="0 0 74.861 100">
  <defs>
    <style>
      .cls-1 {
        fill: #f2180b;
      }
    </style>
  </defs>
  <g id="beauty" transform="translate(-0.002)">
    <path id="Path_101" data-name="Path 101" class="cls-1" d="M84.407,88.709H65.053V85.433a1.613,1.613,0,1,0-3.226,0,6.054,6.054,0,0,1-6.1,6.029l-8.412.4v-22.5a1.613,1.613,0,0,0-2.158-1.518l-4.059,1.458c-2.374.745-3.155.346-3.289.259a.466.466,0,0,1-.139-.14c.837-1.155,4.861-4.147,8.5-6.5,1.344.282,5.431,2.289,8.915,4.246a7.244,7.244,0,0,0,3.878,4.378l3.887,1.548a1.605,1.605,0,0,0,.52.113l20.968,1a1.614,1.614,0,0,0,.154-3.223l-20.7-.983-3.578-1.424a4.48,4.48,0,0,1-2.265-3.046,1.609,1.609,0,0,0-.715-.848c-5.419-3.1-8.339-4.317-9.962-4.768a1.4,1.4,0,0,0,.045-.221,1.585,1.585,0,0,0-.174-.7c7.414-4.594,12.65-15.557,12.65-28.334C59.788,13.747,50.637,0,39.389,0a13.763,13.763,0,0,0-2.516.258A14.077,14.077,0,0,0,34.267,0c-11.248,0-20.4,13.747-20.4,30.645,0,14.2,6.581,26.616,15.7,29.816v5.668H27.15a4.036,4.036,0,0,0-4.032,4.032v1.613a3.99,3.99,0,0,0,.827,2.419,3.994,3.994,0,0,0-.827,2.419v1.614a3.994,3.994,0,0,0,.827,2.419,3.992,3.992,0,0,0-.827,2.419v1.613a4.024,4.024,0,0,0,1.889,3.4,3.994,3.994,0,0,0-.276,1.437v1.613a4.036,4.036,0,0,0,4.032,4.032h1A6.271,6.271,0,0,0,35.89,100h5.1a6.322,6.322,0,0,0,6.147-4.9l8.662-.408A9.236,9.236,0,0,0,62.6,91.7a1.6,1.6,0,0,0,.838.235H84.407a1.613,1.613,0,0,0,0-3.226ZM27.149,85.483a.807.807,0,0,1-.806-.806V83.064a.808.808,0,0,1,.806-.806h8.065a.808.808,0,0,1,.806.806v1.613a.807.807,0,0,1-.806.806Zm10.484-8.871v1.613a.807.807,0,0,1-.806.806H27.149a.807.807,0,0,1-.806-.806V76.612a.808.808,0,0,1,.806-.806h9.677A.808.808,0,0,1,37.633,76.612ZM56.561,30.645c0,15.119-7.7,27.419-17.174,27.419s-17.171-12.3-17.171-27.419,7.7-27.419,17.171-27.419S56.561,15.526,56.561,30.645Zm-39.469,0c0-11.751,4.663-21.77,11.183-25.664-5.582,5.474-9.285,14.925-9.285,25.664s3.71,20.207,9.3,25.678C21.667,52.371,17.092,42.193,17.092,30.645Zm15.7,30.645h9.958a49.338,49.338,0,0,0-6.371,4.839H32.795Zm-6.452,8.871a.807.807,0,0,1,.807-.806h7.229a1.828,1.828,0,0,0,.041.259,3.626,3.626,0,0,0,1.453,2.524,3.919,3.919,0,0,0,.885.442H27.149a.807.807,0,0,1-.806-.806Zm1.613,20.968V89.515a.808.808,0,0,1,.806-.806h8.065a.808.808,0,0,1,.806.806v1.614a.808.808,0,0,1-.806.806H28.762A.808.808,0,0,1,27.956,91.129ZM40.99,96.774h-5.1a3.073,3.073,0,0,1-2.715-1.613h3.651a4.036,4.036,0,0,0,4.032-4.032V89.515a4.021,4.021,0,0,0-1.889-3.4,4,4,0,0,0,.276-1.437V83.064a4,4,0,0,0-.276-1.437,4.022,4.022,0,0,0,1.889-3.4V76.612a3.992,3.992,0,0,0-.827-2.419,3.988,3.988,0,0,0,.713-1.505c.446-.1.887-.182,1.377-.336l1.962-.7v21.9c0,.022.013.042.014.064s-.014.043-.014.066A3.1,3.1,0,0,1,40.99,96.774Zm0,0" transform="translate(-11.157 0)"/>
    <path id="Path_102" data-name="Path 102" class="cls-1" d="M100,65.065a1.607,1.607,0,0,0,1.14-.473l4.032-4.032a1.612,1.612,0,1,0-2.28-2.28l-4.032,4.032A1.613,1.613,0,0,0,100,65.065Zm0,0" transform="translate(-79.171 -46.516)"/>
    <path id="Path_103" data-name="Path 103" class="cls-1" d="M90.6,94.2a1.613,1.613,0,0,0,2.28,0l8.871-8.871a1.612,1.612,0,0,0-2.28-2.28L90.6,91.923A1.613,1.613,0,0,0,90.6,94.2Zm0,0" transform="translate(-72.526 -66.451)"/>
    <path id="Path_104" data-name="Path 104" class="cls-1" d="M256.474,53.445a1.613,1.613,0,0,0,2.281,0L259.9,52.3l1.14,1.141a1.613,1.613,0,1,0,2.281-2.281l-1.14-1.14,1.141-1.141a1.613,1.613,0,1,0-2.281-2.28l-1.14,1.14-1.141-1.14a1.613,1.613,0,1,0-2.28,2.28l1.14,1.141-1.14,1.14A1.613,1.613,0,0,0,256.474,53.445Zm0,0" transform="translate(-206 -37.121)"/>
    <path id="Path_105" data-name="Path 105" class="cls-1" d="M7.317,286.088a1.613,1.613,0,0,0-2.281,0l-1.14,1.14-1.141-1.14a1.613,1.613,0,1,0-2.28,2.28l1.14,1.141-1.14,1.14a1.613,1.613,0,1,0,2.28,2.281L3.9,291.789l1.141,1.141a1.613,1.613,0,0,0,2.28-2.281l-1.14-1.14,1.14-1.141A1.612,1.612,0,0,0,7.317,286.088Zm0,0" transform="translate(0 -229.831)"/>
  </g>
</svg>
