<svg xmlns="http://www.w3.org/2000/svg" viewBox="0 0 99.891 100">
  <defs>
    <style>
      .cls-1 {
        fill: #f2180b;
      }
    </style>
  </defs>
  <g id="creativity" transform="translate(-0.012 0)">
    <g id="_035---Creative-Thinking" data-name="035---Creative-Thinking" transform="translate(0.012 0)">
      <path id="Shape" class="cls-1" d="M86.271,73.333a22.4,22.4,0,0,0-.04-8.5l7.633-18.422a.285.285,0,0,0,0-.037,31.3,31.3,0,0,1,5.358-9.3,2.485,2.485,0,0,0,.615-2.275L96.708,21.28a1.632,1.632,0,0,0-.167-.4c-.013-.025-.018-.055-.032-.078s-.072-.08-.105-.123a1.68,1.68,0,0,0-.235-.275,1.549,1.549,0,0,0-.182-.11,1.693,1.693,0,0,0-.258-.157,1.647,1.647,0,0,0-.39-.095c-.038,0-.072-.025-.11-.028a1.667,1.667,0,0,0-.918.205c-.025.013-.055.018-.08.033h-.017L82.446,27.593a2.487,2.487,0,0,0-1.177,2.05,31.283,31.283,0,0,1-2.8,10.388v.018l-3.815,9.222a22.356,22.356,0,0,0-5.953-2.15,90.056,90.056,0,0,0,.863-16.388A18.19,18.19,0,0,0,73.7,17.38C72.658,7.667,63.88.652,63.5.357A1.667,1.667,0,0,0,60.863,2.1c.858,3.223.115,6.625-6.225,13.62a9.753,9.753,0,0,0-2.285,10.628,12.938,12.938,0,0,0,2.373,3.833c-.4,2.575-.72,5.013-.938,7.388a83.47,83.47,0,0,0-.29,11.82,22.676,22.676,0,0,0-4.15,2.892L41.265,17.71c0-.035-.033-.06-.043-.092A1.58,1.58,0,0,0,41.1,17.3L32.848,2.049a3.848,3.848,0,0,0-7.23,1.693l-.627,17.325a1.728,1.728,0,0,0,.042.372v.075L33.28,56.708a18.762,18.762,0,0,0-3.853.575L20.355,35.375a3.368,3.368,0,0,0-4.35-1.782L2.14,39.333a3.343,3.343,0,0,0-1.8,4.355l12.3,29.68A13.325,13.325,0,0,0,13.325,100H86.658a13.335,13.335,0,1,0-.387-26.667Zm-1.7-43.14,6.987-4.36-2.473,5.973a1.667,1.667,0,0,0,3.08,1.277L94.64,27.11l1.852,8.022a32.966,32.966,0,0,0-4.833,7.978,6.855,6.855,0,0,1-9.317-3.853A32.924,32.924,0,0,0,84.573,30.193ZM80.74,43.278A10.152,10.152,0,0,0,84.895,46.3a10.575,10.575,0,0,0,4.078.86,8.833,8.833,0,0,0,1.01-.062L84.665,59.935a22.62,22.62,0,0,0-7.157-8.848Zm-22.833-11.9,8.373.512c.052,1.557.033,3.167-.018,4.8a35.033,35.033,0,0,1-8.35-.4c-.21-.03-.415-.053-.623-.082.167-1.57.37-3.16.615-4.828Zm-.8-13.422c4.425-4.882,6.718-8.637,7.252-12.167a22.29,22.29,0,0,1,6.015,11.947A14.933,14.933,0,0,1,67,28.587q-4.938-.3-9.768-.6a6.952,6.952,0,0,1-.128-10.033Zm-.127,21.572.483.063a47.488,47.488,0,0,0,6.488.552c.69,0,1.417-.055,2.145-.112-.152,2.145-.4,4.385-.715,6.7-.412-.022-.815-.062-1.228-.062a22.321,22.321,0,0,0-7.387,1.272,80.437,80.437,0,0,1,.21-8.413ZM44.093,59.015,39.325,38.7a1.667,1.667,0,0,0-3.245.76l4.285,18.282a18.877,18.877,0,0,0-3.633-.9L29.417,25.623a7.9,7.9,0,0,0,3.263.71c.105,0,.217-.015.323-.02l1.178,5.032a1.667,1.667,0,1,0,3.245-.76l-1.18-5.035a7.893,7.893,0,0,0,2.912-2.217l7.437,31.8A22.358,22.358,0,0,0,44.093,59.015ZM33.91,22.848a5.533,5.533,0,0,1-5.565-2.228l.212-5.87a9.81,9.81,0,0,0,1.758.167,7.427,7.427,0,0,0,1.693-.188,8.49,8.49,0,0,0,3.09-1.537l2.807,5.18a5.528,5.528,0,0,1-3.995,4.48ZM29.345,3.379a.52.52,0,0,1,.573.257l3.573,6.608a5.687,5.687,0,0,1-2.25,1.25,5.667,5.667,0,0,1-2.568-.122l.272-7.51A.517.517,0,0,1,29.345,3.379ZM17.283,36.667l1.273,3.077L12.39,42.3a1.667,1.667,0,0,0,.642,3.2,1.69,1.69,0,0,0,.638-.127l6.167-2.555,1.275,3.08-3.085,1.278a1.667,1.667,0,0,0,.64,3.207,1.693,1.693,0,0,0,.637-.127l3.085-1.278,1.275,3.08-6.172,2.558a1.667,1.667,0,0,0,.64,3.207,1.687,1.687,0,0,0,.637-.127l6.167-2.553L26.283,58.4A19.348,19.348,0,0,0,15.492,71.533L3.412,42.407Zm69.375,60H13.325a10,10,0,1,1,0-20,9.818,9.818,0,0,1,2.852.413,1.667,1.667,0,0,0,2.148-1.565A15.833,15.833,0,0,1,43.658,63.167a1.667,1.667,0,0,0,2.555-.75A19.171,19.171,0,0,1,82.483,74.79a1.667,1.667,0,0,0,1.95,2.12,10.409,10.409,0,0,1,2.225-.243,10,10,0,1,1,0,20Z" transform="translate(-0.012 0)"/>
      <path id="Shape-2" data-name="Shape" class="cls-1" d="M39.348,20.4a1.667,1.667,0,0,0,1.333-.658A12.5,12.5,0,0,0,42.9,9.927a1.667,1.667,0,1,0-3.22.858,9.258,9.258,0,0,1-1.653,6.943A1.667,1.667,0,0,0,39.358,20.4Z" transform="translate(25.107 5.769)"/>
      <path id="Shape-3" data-name="Shape" class="cls-1" d="M46.03,47.307a8.193,8.193,0,0,0-3.575.833A10,10,0,0,0,25.18,57.957a1.667,1.667,0,0,0,1.533,1.013,1.648,1.648,0,0,0,.653-.133,1.667,1.667,0,0,0,.88-2.187,6.79,6.79,0,0,1-.55-2.677,6.667,6.667,0,0,1,6.667-6.667,6.6,6.6,0,0,1,6.025,3.833,1.82,1.82,0,0,0,.117.157,1.693,1.693,0,0,0,.088.167c.03.037.073.053.107.088a1.59,1.59,0,0,0,.258.217,1.615,1.615,0,0,0,.267.167,1.65,1.65,0,0,0,.3.093,1.531,1.531,0,0,0,.313.048,2.052,2.052,0,0,0,.637-.107,1.261,1.261,0,0,0,.132-.032,1.5,1.5,0,0,0,.155-.115,1.732,1.732,0,0,0,.175-.09A4.915,4.915,0,0,1,46.03,50.64a5,5,0,0,1,4.533,2.908A1.667,1.667,0,1,0,53.6,52.165,8.333,8.333,0,0,0,46.03,47.307Z" transform="translate(16.233 29.36)"/>
      <path id="Shape-4" data-name="Shape" class="cls-1" d="M20.14,39.089c-.252.082-6.14,2.118-6.14,8.248a1.667,1.667,0,1,0,3.333,0,5.73,5.73,0,0,1,3.87-5.088,1.67,1.67,0,0,0-1.063-3.167Z" transform="translate(9.313 25.997)"/>
      <path id="Shape-5" data-name="Shape" class="cls-1" d="M32.262,41.95a1.626,1.626,0,0,0,.4.05,1.667,1.667,0,0,0,1.615-1.262,7.108,7.108,0,0,1,6.727-5.4A1.667,1.667,0,0,0,41,32a10.382,10.382,0,0,0-9.95,7.928A1.667,1.667,0,0,0,32.262,41.95Z" transform="translate(20.646 21.334)"/>
    </g>
  </g>
</svg>
