<svg id="loop" xmlns="http://www.w3.org/2000/svg" viewBox="0 0 77.604 101.946">
  <defs>
    <style>
      .cls-1, .cls-2, .cls-5 {
        fill: none;
      }

      .cls-1, .cls-2, .cls-3, .cls-4, .cls-5 {
        stroke: #f2180b;
      }

      .cls-1, .cls-2, .cls-3, .cls-4 {
        stroke-miterlimit: 10;
      }

      .cls-1 {
        stroke-width: 2.25px;
      }

      .cls-2, .cls-3 {
        stroke-width: 2.5px;
      }

      .cls-3, .cls-4 {
        fill: #f2180b;
      }

      .cls-4, .cls-5 {
        stroke-width: 1.13px;
      }

      .cls-5 {
        stroke-linecap: round;
        stroke-linejoin: round;
      }
    </style>
  </defs>
  <ellipse id="Ellipse_25" data-name="Ellipse 25" class="cls-1" cx="28.268" cy="26.676" rx="28.268" ry="26.676" transform="translate(4.296 4.127)"/>
  <ellipse id="Ellipse_26" data-name="Ellipse 26" class="cls-2" cx="31.314" cy="29.553" rx="31.314" ry="29.553" transform="translate(1.25 1.25)"/>
  <path id="Path_527" data-name="Path 527" class="cls-3" d="M382.06,310.569l4.315,1.469a2.454,2.454,0,0,0,1.838-.1l9.715-4.615a2.192,2.192,0,0,0,1.292-1.969V303S390.19,310.746,382.06,310.569Z" transform="translate(-345.75 -250.214)"/>
  <path id="Path_528" data-name="Path 528" class="cls-4" d="M391.42,311.509l26.868,40a2.723,2.723,0,0,0,3.592.769l1.823-1.069a2.377,2.377,0,0,0,.846-3.392L398.558,308.14Z" transform="translate(-347.91 -251.4)"/>
  <path id="Path_529" data-name="Path 529" class="cls-4" d="M406.205,330.943l4.269-2.308a2.354,2.354,0,0,1,3.077.769l12.369,18.884a2.085,2.085,0,0,1-.769,2.992l-4.038,2.185a2.308,2.308,0,0,1-3.077-.708L405.436,334a2.077,2.077,0,0,1,.769-3.054Z" transform="translate(-351.058 -256.065)"/>
  <path id="Path_530" data-name="Path 530" class="cls-5" d="M362.431,277.323s-2.085-5.054-.592-9.269l.592-1.4c0-.169,2.354-7.138,7.146-8.423l1.485-.562a10.846,10.846,0,0,1,11.007,6.154l.892,1.4s2.385,6.738.6,9.23v1.685s-1.192,4.215-2.685,5.054l-1.185-.838,1.185-1.685-1.185-1.123-1.492,1.961-1.185-1.123.592-.838,1.485-3.654c.6-3.654-1.485-8.146-1.485-8.146l-.892,1.408c-5.654-7.023-8.038,1.961-8.038,1.961h1.492s2.977-7.3,5.654.562l1.485-.562s1.192,5.615-1.185,7.861l-1.208-.777c.892-.285,1.192-4.492,1.192-4.492H372.83s1.485,3.646,1.192-.846c0,0-.477-5.123-1.838-2.077a7.23,7.23,0,0,0-.6,3.5c.192,2.592,1.538,7.207,7.792,10.653l-2.677.562c-2.677-1.123-5.061-5.615-5.061-5.615l-.892-1.123a10.992,10.992,0,0,1-.892-5.054l-1.485-.562a9.782,9.782,0,0,0,.892,5.892l-2.977,3.654-.892-1.123-.592-1.123a10.392,10.392,0,0,1-1.492-8.146l.3-1.685s1.485-5.331,3.569-6.738l4.169-.562s6.546-.838,8.33,5.338l.892,2.246s.892,4.492-.3,6.738l1.192,1.123c1.192-1.408.892-4.492.892-4.492v-1.685c-.3-3.654-3.277-8.146-3.277-8.146l-.892-.838c-5.054-4.777-9.523-.846-9.523-.846l.6,1.685c-4.461,2.246-4.461,10.953-4.461,10.953l.285,1.931s2.085,6.261,5.961,7.054l.3-1.4c-6.846-4.215-4.469-10.392-4.469-10.392l.3-2.531s3.569-8.7,8.93-3.931" transform="translate(-340.958 -239.736)"/>
</svg>
