<svg xmlns="http://www.w3.org/2000/svg" viewBox="0 0 55.987 100.98">
  <defs>
    <style>
      .cls-1, .cls-2, .cls-4, .cls-6 {
        fill: none;
      }

      .cls-1, .cls-2, .cls-3, .cls-4, .cls-5, .cls-6 {
        stroke: #f2180b;
      }

      .cls-1, .cls-3 {
        stroke-miterlimit: 10;
      }

      .cls-1, .cls-2, .cls-5 {
        stroke-width: 1.08px;
      }

      .cls-2, .cls-4, .cls-5, .cls-6 {
        stroke-linecap: round;
        stroke-linejoin: round;
      }

      .cls-3 {
        fill: #f2180b;
        stroke-width: 0.86px;
      }

      .cls-4 {
        stroke-width: 1.07px;
      }

      .cls-5 {
        fill: #59579d;
      }

      .cls-6 {
        stroke-width: 0.9px;
      }
    </style>
  </defs>
  <g id="paintset" transform="translate(0.005 0.04)">
    <path id="Path_535" data-name="Path 535" class="cls-1" d="M407.788,344.819l-12.856-1.632a2.118,2.118,0,0,1-1.974-2.34l12.769-79.3a2.293,2.293,0,0,1,2.635-1.751l12.856,1.632a2.118,2.118,0,0,1,1.982,2.34l-12.769,79.3A2.309,2.309,0,0,1,407.788,344.819Z" transform="translate(-367.772 -258.955)"/>
    <line id="Line_71" data-name="Line 71" class="cls-2" x2="6.926" y2="0.9" transform="translate(48.152 6.13)"/>
    <line id="Line_72" data-name="Line 72" class="cls-2" x2="6.926" y2="0.9" transform="translate(46.862 14.154)"/>
    <line id="Line_73" data-name="Line 73" class="cls-2" x2="4.37" y2="0.573" transform="translate(50.452 8.064)"/>
    <line id="Line_74" data-name="Line 74" class="cls-2" x2="4.362" y2="0.565" transform="translate(50.198 9.672)"/>
    <line id="Line_75" data-name="Line 75" class="cls-2" x2="4.37" y2="0.573" transform="translate(49.935 11.272)"/>
    <line id="Line_76" data-name="Line 76" class="cls-2" x2="4.362" y2="0.573" transform="translate(49.68 12.88)"/>
    <line id="Line_77" data-name="Line 77" class="cls-2" x2="6.926" y2="0.9" transform="translate(45.525 22.441)"/>
    <line id="Line_78" data-name="Line 78" class="cls-2" x2="4.362" y2="0.565" transform="translate(49.123 16.359)"/>
    <line id="Line_79" data-name="Line 79" class="cls-2" x2="4.362" y2="0.573" transform="translate(48.86 17.959)"/>
    <line id="Line_80" data-name="Line 80" class="cls-2" x2="4.362" y2="0.565" transform="translate(48.605 19.567)"/>
    <line id="Line_81" data-name="Line 81" class="cls-2" x2="4.37" y2="0.573" transform="translate(48.343 21.167)"/>
    <line id="Line_82" data-name="Line 82" class="cls-2" x2="6.926" y2="0.9" transform="translate(44.227 30.465)"/>
    <line id="Line_83" data-name="Line 83" class="cls-2" x2="4.362" y2="0.573" transform="translate(47.825 24.375)"/>
    <line id="Line_84" data-name="Line 84" class="cls-2" x2="4.37" y2="0.565" transform="translate(47.563 25.983)"/>
    <line id="Line_85" data-name="Line 85" class="cls-2" x2="4.362" y2="0.573" transform="translate(47.308 27.584)"/>
    <line id="Line_86" data-name="Line 86" class="cls-2" x2="4.37" y2="0.573" transform="translate(47.045 29.192)"/>
    <line id="Line_87" data-name="Line 87" class="cls-2" x2="6.926" y2="0.908" transform="translate(42.938 38.482)"/>
    <line id="Line_88" data-name="Line 88" class="cls-2" x2="4.37" y2="0.573" transform="translate(46.528 32.4)"/>
    <line id="Line_89" data-name="Line 89" class="cls-2" x2="4.362" y2="0.565" transform="translate(46.273 34.008)"/>
    <line id="Line_90" data-name="Line 90" class="cls-2" x2="4.37" y2="0.573" transform="translate(46.01 35.608)"/>
    <line id="Line_91" data-name="Line 91" class="cls-2" x2="4.362" y2="0.565" transform="translate(45.756 37.216)"/>
    <line id="Line_92" data-name="Line 92" class="cls-2" x2="6.926" y2="0.9" transform="translate(41.449 46.211)"/>
    <line id="Line_93" data-name="Line 93" class="cls-2" x2="4.37" y2="0.565" transform="translate(45.039 40.13)"/>
    <line id="Line_94" data-name="Line 94" class="cls-2" x2="4.362" y2="0.573" transform="translate(44.784 41.73)"/>
    <line id="Line_95" data-name="Line 95" class="cls-2" x2="4.37" y2="0.565" transform="translate(44.522 43.338)"/>
    <line id="Line_96" data-name="Line 96" class="cls-2" x2="4.362" y2="0.573" transform="translate(44.267 44.938)"/>
    <line id="Line_97" data-name="Line 97" class="cls-2" x2="6.926" y2="0.9" transform="translate(40.159 54.236)"/>
    <line id="Line_98" data-name="Line 98" class="cls-2" x2="4.362" y2="0.573" transform="translate(43.75 48.146)"/>
    <line id="Line_99" data-name="Line 99" class="cls-2" x2="4.362" y2="0.565" transform="translate(43.495 49.754)"/>
    <line id="Line_100" data-name="Line 100" class="cls-2" x2="4.362" y2="0.573" transform="translate(43.232 51.354)"/>
    <line id="Line_101" data-name="Line 101" class="cls-2" x2="4.362" y2="0.573" transform="translate(42.977 52.962)"/>
    <rect id="Rectangle_78" data-name="Rectangle 78" class="cls-1" width="7.308" height="44.301" rx="2.31" transform="translate(19.462 23.34)"/>
    <path id="Path_536" data-name="Path 536" class="cls-1" d="M384.507,286.614s-9.744-4.323-1.831-11.073c6.528-5.572,4.776-8.932,3.98-9.943a1.282,1.282,0,0,1-.223-1.25c.279-.716,1.25-1.266,4.482.931,5.174,3.511,9.441,18.365.915,21.335" transform="translate(-365.046 -259.763)"/>
    <path id="Path_537" data-name="Path 537" class="cls-2" d="M394.94,275.18s3.351,4.593,0,7.021" transform="translate(-368.179 -262.101)"/>
    <path id="Path_538" data-name="Path 538" class="cls-3" d="M405.685,373.709h-33.14a3.12,3.12,0,0,1-3.232-2.619l-3.893-38.315a3.041,3.041,0,0,1,3.232-3.136h40.934a3.033,3.033,0,0,1,3.224,3.137l-3.893,38.315a3.121,3.121,0,0,1-3.232,2.619Z" transform="translate(-362.158 -273.206)"/>
    <path id="Path_539" data-name="Path 539" class="cls-1" d="M362.485,259.947,362,274.881a6.567,6.567,0,0,0,.119,1.481l12.092,62.889,8.024-1.21-12.188-63.422a2.146,2.146,0,0,0-.143-.454l-6.233-14.433a.629.629,0,0,0-1.186.215Z" transform="translate(-361.46 -258.88)"/>
    <line id="Line_102" data-name="Line 102" class="cls-4" y1="1.616" x2="7.762" transform="translate(0.738 15.778)"/>
    <line id="Line_103" data-name="Line 103" class="cls-5" x2="2.436" y2="12.697" transform="translate(6.979 18.747)"/>
    <path id="Path_540" data-name="Path 540" class="cls-6" d="M362.4,266.45s.279,2.866,4.585,2.221" transform="translate(-361.542 -260.32)"/>
  </g>
</svg>
