<svg xmlns="http://www.w3.org/2000/svg" viewBox="0 0 83.64 100">
  <defs>
    <style>
      .cls-1 {
        fill: #f2180b;
      }
    </style>
  </defs>
  <g id="to-do" transform="translate(-41.882)">
    <g id="Group_7" data-name="Group 7" transform="translate(41.882)">
      <g id="Group_6" data-name="Group 6">
        <path id="Path_106" data-name="Path 106" class="cls-1" d="M176.719,3.333h-5V1.667a1.667,1.667,0,1,0-3.333,0V3.333h-20V1.667a1.667,1.667,0,0,0-3.333,0V3.333h-20V1.667a1.667,1.667,0,1,0-3.333,0V3.333h-5a5.005,5.005,0,0,0-5,5V40a1.667,1.667,0,1,0,3.333,0V8.333a1.669,1.669,0,0,1,1.667-1.667h5v3.64a5,5,0,1,0,3.333,0V6.667h20v3.64a5,5,0,1,0,3.333,0V6.667h20v3.64a5,5,0,1,0,3.333,0V6.667h5a1.669,1.669,0,0,1,1.667,1.667V95a1.669,1.669,0,0,1-1.667,1.667h-60A1.669,1.669,0,0,1,115.052,95V71.667a1.667,1.667,0,0,0-3.333,0V95a5.005,5.005,0,0,0,5,5h60a5.005,5.005,0,0,0,5-5V8.333A5.005,5.005,0,0,0,176.719,3.333ZM123.386,16.667A1.667,1.667,0,1,1,125.052,15,1.667,1.667,0,0,1,123.386,16.667Zm23.333,0A1.667,1.667,0,1,1,148.386,15,1.667,1.667,0,0,1,146.719,16.667Zm23.333,0A1.667,1.667,0,1,1,171.719,15,1.667,1.667,0,0,1,170.052,16.667Z" transform="translate(-98.079)"/>
        <path id="Path_107" data-name="Path 107" class="cls-1" d="M150.9,138c.039,0,.079,0,.118,0a1.666,1.666,0,0,0,1.215-.662l5-6.667a1.667,1.667,0,0,0-2.666-2l-3.848,5.129-1.974-1.974a1.666,1.666,0,0,0-2.357,2.357l3.333,3.333A1.665,1.665,0,0,0,150.9,138Z" transform="translate(-125.59 -103)"/>
        <path id="Path_108" data-name="Path 108" class="cls-1" d="M146.385,228.045l3.333,3.333a1.664,1.664,0,0,0,1.178.488c.039,0,.079,0,.118,0a1.666,1.666,0,0,0,1.215-.662l5-6.667a1.667,1.667,0,1,0-2.666-2l-3.848,5.129-1.974-1.974a1.666,1.666,0,0,0-2.357,2.357Z" transform="translate(-125.59 -178.534)"/>
        <path id="Path_109" data-name="Path 109" class="cls-1" d="M224.32,156.934h38.333a1.667,1.667,0,1,0,0-3.333H224.32a1.667,1.667,0,1,0,0,3.333Z" transform="translate(-187.346 -123.601)"/>
        <path id="Path_110" data-name="Path 110" class="cls-1" d="M224.32,250.8h38.333a1.667,1.667,0,1,0,0-3.333H224.32a1.667,1.667,0,1,0,0,3.333Z" transform="translate(-187.346 -199.134)"/>
        <path id="Path_111" data-name="Path 111" class="cls-1" d="M224.32,344.667h38.333a1.667,1.667,0,1,0,0-3.333H224.32a1.667,1.667,0,1,0,0,3.333Z" transform="translate(-187.346 -274.667)"/>
        <path id="Path_112" data-name="Path 112" class="cls-1" d="M224.32,438.534h38.333a1.667,1.667,0,1,0,0-3.333H224.32a1.667,1.667,0,1,0,0,3.333Z" transform="translate(-187.346 -350.201)"/>
        <path id="Path_113" data-name="Path 113" class="cls-1" d="M66.461,232.679l1.217,1.217a1.666,1.666,0,1,0,2.357-2.357l-1.186-1.186a13.039,13.039,0,0,0-3.461-8.712L50.908,205.956a5.14,5.14,0,0,0-3.428-1.637c-.1-.007-.19-.033-.289-.035h0a5.4,5.4,0,0,0-2.963.859,5.115,5.115,0,0,0-.818.664,5.185,5.185,0,0,0-.144,7.2l2.5,2.706h0l11.81,12.794A13.112,13.112,0,0,0,66.461,232.679ZM45.716,210.748a1.866,1.866,0,0,1,1.37-3.132h.039a1.847,1.847,0,0,1,1.333.6l1.22,1.322-2.64,2.641Zm6.225,1.241,11,11.913a9.708,9.708,0,0,1,2.5,5.322,9.777,9.777,0,0,1-5.413-2.976L49.3,214.63Z" transform="translate(-41.882 -164.384)"/>
      </g>
    </g>
  </g>
</svg>
