<svg id="complaint" xmlns="http://www.w3.org/2000/svg" viewBox="0 0 58.398 65">
  <defs>
    <style>
      .cls-1 {
        fill: #f2180b;
      }
    </style>
  </defs>
  <path id="Path_168" data-name="Path 168" class="cls-1" d="M181.27,391.539a1.27,1.27,0,1,0-1.27-1.27A1.27,1.27,0,0,0,181.27,391.539Zm0,0" transform="translate(-157.148 -339.615)"/>
  <path id="Path_169" data-name="Path 169" class="cls-1" d="M54.59,21.074H48.242V1.27A1.269,1.269,0,0,0,46.973,0H11.426a1.269,1.269,0,0,0-1.27,1.27v19.8H3.809A3.813,3.813,0,0,0,0,24.883V35.039a3.815,3.815,0,0,0,2.539,3.59V61.191A3.813,3.813,0,0,0,6.348,65h45.7a3.813,3.813,0,0,0,3.809-3.809V38.629a3.815,3.815,0,0,0,2.539-3.59V24.883A3.813,3.813,0,0,0,54.59,21.074Zm-6.348,7.617h2.539V31.23H48.242ZM12.7,2.539H45.7V31.23H12.7ZM7.617,31.23V28.691h2.539V31.23Zm44.434,31.23H6.348a1.271,1.271,0,0,1-1.27-1.27V38.848H53.32V61.191A1.271,1.271,0,0,1,52.051,62.461Zm3.809-27.422a1.271,1.271,0,0,1-1.27,1.27H3.809a1.271,1.271,0,0,1-1.27-1.27V24.883a1.271,1.271,0,0,1,1.27-1.27h6.348v2.539H6.348a1.269,1.269,0,0,0-1.27,1.27V32.5a1.269,1.269,0,0,0,1.27,1.27h45.7a1.269,1.269,0,0,0,1.27-1.27V27.422a1.269,1.269,0,0,0-1.27-1.27H48.242V23.613H54.59a1.271,1.271,0,0,1,1.27,1.27Zm0,0"/>
  <path id="Path_170" data-name="Path 170" class="cls-1" d="M146.66,349H121.27a1.269,1.269,0,0,0-1.27,1.27v10.156a1.269,1.269,0,0,0,1.27,1.27H146.66a1.269,1.269,0,0,0,1.27-1.27V350.27A1.269,1.269,0,0,0,146.66,349Zm-1.27,10.156H122.539v-7.617h22.852Zm0,0" transform="translate(-104.766 -304.693)"/>
  <path id="Path_171" data-name="Path 171" class="cls-1" d="M221.27,391.539h5.078a1.27,1.27,0,0,0,0-2.539H221.27a1.27,1.27,0,0,0,0,2.539Zm0,0" transform="translate(-192.07 -339.615)"/>
  <path id="Path_172" data-name="Path 172" class="cls-1" d="M161.27,136.156a1.269,1.269,0,0,0,1.27-1.27,6.348,6.348,0,0,1,12.7,0,1.27,1.27,0,0,0,2.539,0,8.887,8.887,0,0,0-17.773,0A1.269,1.269,0,0,0,161.27,136.156Zm0,0" transform="translate(-139.688 -110.004)"/>
  <path id="Path_173" data-name="Path 173" class="cls-1" d="M161.27,71.078a1.269,1.269,0,0,0,1.27-1.27V67.27a1.27,1.27,0,0,0-2.539,0v2.539A1.269,1.269,0,0,0,161.27,71.078Zm0,0" transform="translate(-139.688 -57.621)"/>
  <path id="Path_174" data-name="Path 174" class="cls-1" d="M281.27,71.078a1.269,1.269,0,0,0,1.27-1.27V67.27a1.27,1.27,0,0,0-2.539,0v2.539A1.269,1.269,0,0,0,281.27,71.078Zm0,0" transform="translate(-244.453 -57.621)"/>
</svg>
