<svg xmlns="http://www.w3.org/2000/svg" viewBox="0 0 64.788 65">
  <defs>
    <style>
      .cls-1 {
        fill: #f2180b;
      }
    </style>
  </defs>
  <g id="feedback" transform="translate(-0.784)">
    <g id="Group_12" data-name="Group 12" transform="translate(0.784)">
      <g id="Group_11" data-name="Group 11" transform="translate(0)">
        <path id="Path_175" data-name="Path 175" class="cls-1" d="M61.35,6.489H39.719V4.326A4.339,4.339,0,0,0,35.393,0H5.11A4.339,4.339,0,0,0,.784,4.326V28.12c0,11.9,11.356,11.9,15.141,11.9a1.082,1.082,0,0,0,0-2.163A4.339,4.339,0,0,1,11.6,33.527v-.433A4.549,4.549,0,0,1,16.142,29.2H31.067v2.163H21.333a1.022,1.022,0,0,0-1.082,1.082,9.71,9.71,0,0,0,2.6,6.6,10.455,10.455,0,0,0-.433,3.136A10.93,10.93,0,0,0,28.9,52.13c0,.649-.324,1.947-3.245,1.947a5.355,5.355,0,0,0-5.408,5.408v5.408h2.163V59.484a3.213,3.213,0,0,1,3.028-3.245l5.3,2.6a7.509,7.509,0,0,0,1.406.541v5.516h2.163V59.376a5.354,5.354,0,0,0,1.406-.433l5.3-2.6a3.213,3.213,0,0,1,3.028,3.245V65h2.163V59.592A5.355,5.355,0,0,0,40.8,54.185c-2.92,0-3.245-1.3-3.245-1.947a10.765,10.765,0,0,0,6.489-10.275v-.757a8.57,8.57,0,0,0-1.082-4.326H50.21a4.549,4.549,0,0,1,4.542,3.894,4.363,4.363,0,0,1-3.894,4.759h-.433a1.082,1.082,0,0,0,0,2.163c3.785,0,15.141,0,15.141-11.9V10.815A4.181,4.181,0,0,0,61.35,6.489ZM16.142,27.038a6.762,6.762,0,0,0-6.705,5.84,6.8,6.8,0,0,0,1.3,4.542c-5.3-1.082-7.787-4-7.787-9.3V4.326A2.169,2.169,0,0,1,5.11,2.163H35.393a2.169,2.169,0,0,1,2.163,2.163V24.875a2.169,2.169,0,0,1-2.163,2.163Zm6.381,6.489H34.311a7.567,7.567,0,0,1,7.463,6.489H29.985A7.567,7.567,0,0,1,22.523,33.527ZM36.15,50.291a1.039,1.039,0,0,0-.757.973v.649a3.806,3.806,0,0,0,2.163,3.677L34.744,57a3.952,3.952,0,0,1-3.136,0l-2.7-1.406a3.806,3.806,0,0,0,2.163-3.677v-.541a1.039,1.039,0,0,0-.757-.973,8.758,8.758,0,0,1-5.732-8.22,6.651,6.651,0,0,1,.108-1.514,9.794,9.794,0,0,0,5.3,1.514h11.9A8.515,8.515,0,0,1,36.15,50.291Zm27.363-14.6c0,5.3-2.488,8.22-7.787,9.3a6.8,6.8,0,0,0,1.3-4.542,6.682,6.682,0,0,0-6.705-5.84h-8.76a9.669,9.669,0,0,0-7.246-3.245H33.23V29.2h2.163a4.339,4.339,0,0,0,4.326-4.326V8.652H61.35a2.169,2.169,0,0,1,2.163,2.163V35.691Z" transform="translate(-0.784)"/>
      </g>
    </g>
    <g id="Group_14" data-name="Group 14" transform="translate(9.436 4.326)">
      <g id="Group_13" data-name="Group 13">
        <path id="Path_176" data-name="Path 176" class="cls-1" d="M81.007,39.571H79.925a1.022,1.022,0,0,1-1.082-1.082V35.245a3.245,3.245,0,0,0-6.489,0v3.245a1.022,1.022,0,0,1-1.082,1.082,1.022,1.022,0,0,0-1.082-1.082H65.866a1.022,1.022,0,0,0-1.082,1.082v11.9a1.022,1.022,0,0,0,1.082,1.082h4.326a1.022,1.022,0,0,0,1.082-1.082h9.734a3.187,3.187,0,0,0,3.245-3.245V42.815A3.187,3.187,0,0,0,81.007,39.571ZM69.11,50.386H66.947V40.652H69.11Zm12.978-2.163A1.022,1.022,0,0,1,81.007,49.3H71.273V41.734a3.187,3.187,0,0,0,3.245-3.245V35.245a1.082,1.082,0,0,1,2.163,0v3.245a3.187,3.187,0,0,0,3.245,3.245h1.082a1.022,1.022,0,0,1,1.082,1.082Z" transform="translate(-64.784 -32)"/>
      </g>
    </g>
    <g id="Group_16" data-name="Group 16" transform="translate(41.882 10.815)">
      <g id="Group_15" data-name="Group 15">
        <path id="Path_177" data-name="Path 177" class="cls-1" d="M323.17,80h-4.326a1.022,1.022,0,0,0-1.082,1.082h-9.734a3.187,3.187,0,0,0-3.245,3.245v5.408a3.187,3.187,0,0,0,3.245,3.245h1.082a1.022,1.022,0,0,1,1.082,1.082V97.3a3.245,3.245,0,0,0,6.489,0V94.06a1.022,1.022,0,0,1,1.082-1.082,1.022,1.022,0,0,0,1.082,1.082h4.326a1.022,1.022,0,0,0,1.082-1.082v-11.9A1.022,1.022,0,0,0,323.17,80Zm-5.408,10.815a3.187,3.187,0,0,0-3.245,3.245V97.3a1.082,1.082,0,1,1-2.163,0V94.06a3.187,3.187,0,0,0-3.245-3.245h-1.082a1.022,1.022,0,0,1-1.082-1.082V84.326a1.022,1.022,0,0,1,1.082-1.082h9.734Zm4.326,1.082h-2.163V82.163h2.163Z" transform="translate(-304.784 -80)"/>
      </g>
    </g>
    <g id="Group_18" data-name="Group 18" transform="translate(40.801 28.12)">
      <g id="Group_17" data-name="Group 17">
        <rect id="Rectangle_53" data-name="Rectangle 53" class="cls-1" width="4.326" height="2.163"/>
      </g>
    </g>
    <g id="Group_20" data-name="Group 20" transform="translate(26.741 4.326)">
      <g id="Group_19" data-name="Group 19">
        <path id="Path_178" data-name="Path 178" class="cls-1" d="M196.029,33.082V32h-2.163v1.082h-1.082v2.163h1.082v1.082h2.163V35.245h1.082V33.082Z" transform="translate(-192.784 -32)"/>
      </g>
    </g>
  </g>
</svg>
