<svg xmlns="http://www.w3.org/2000/svg" viewBox="0 0 65 65">
  <defs>
    <style>
      .cls-1 {
        fill: #f2180b;
      }
    </style>
  </defs>
  <g id="information" transform="translate(-36 -18)">
    <g id="Group_22" data-name="Group 22" transform="translate(36 18)">
      <g id="Group_21" data-name="Group 21">
        <path id="Path_179" data-name="Path 179" class="cls-1" d="M192.3,111.126a6.485,6.485,0,0,0,.356.654c.119.178.3.356.416.535a5.355,5.355,0,0,0,.594.535,2,2,0,0,0,.713.356,2.942,2.942,0,0,0,.772.238,3.654,3.654,0,0,0,.772.059,3.388,3.388,0,0,0,.772-.059,2.128,2.128,0,0,0,.654-.238h.059a4.431,4.431,0,0,0,.713-.416,3.842,3.842,0,0,0,.535-.475l.059-.059a3.265,3.265,0,0,0,.416-.535,1.859,1.859,0,0,0,.3-.594c0-.059,0-.059.059-.119a3.843,3.843,0,0,0,.238-.772,5.05,5.05,0,0,0,0-1.545,5.519,5.519,0,0,0-.238-.772,3.371,3.371,0,0,0-.713-1.069l-.119-.119a5.193,5.193,0,0,0-.594-.475c-.238-.119-.416-.238-.654-.356a3.349,3.349,0,0,0-.713-.238,3.655,3.655,0,0,0-.772-.059,3.388,3.388,0,0,0-.772.059,3.349,3.349,0,0,0-.713.238h-.059a6.477,6.477,0,0,0-.654.356,5.194,5.194,0,0,0-.594.475,3.843,3.843,0,0,0-.475.535,6.484,6.484,0,0,0-.356.654,3.349,3.349,0,0,0-.238.713,3.655,3.655,0,0,0-.059.772,3.388,3.388,0,0,0,.059.772A5.39,5.39,0,0,0,192.3,111.126Z" transform="translate(-163.481 -89.914)"/>
        <path id="Path_180" data-name="Path 180" class="cls-1" d="M188.295,196.9h-1.367V182.345a1.534,1.534,0,0,0-1.545-1.545h-6.239a1.534,1.534,0,0,0-1.545,1.545v3.208a1.534,1.534,0,0,0,1.545,1.545h1.248v9.863h-1.248a1.534,1.534,0,0,0-1.545,1.545v3.208a1.534,1.534,0,0,0,1.545,1.545h9.15a1.534,1.534,0,0,0,1.545-1.545v-3.208A1.586,1.586,0,0,0,188.295,196.9Z" transform="translate(-151.22 -153.944)"/>
        <path id="Path_181" data-name="Path 181" class="cls-1" d="M32.5,0A32.5,32.5,0,1,0,65,32.5,32.508,32.508,0,0,0,32.5,0Zm0,60.722A28.222,28.222,0,1,1,60.722,32.5,28.248,28.248,0,0,1,32.5,60.722Z"/>
      </g>
    </g>
  </g>
</svg>
